<svg xmlns="http://www.w3.org/2000/svg" width="452.9" height="73.2" viewBox="0 0 452.9 73.2"><g transform="translate(-169.5 -269.4)"><rect width="1.3" height="73.2" transform="translate(397.3 269.4)" fill="#cf0a2c"/><path d="M455.8,285.1a5.269,5.269,0,0,1,5-5.5,3.735,3.735,0,0,1,2.9,1.2l.3-1.2h1.2v4.1H464c-.7-1.9-1.7-3-3-3-1.7,0-2.9,1.2-2.9,4.2,0,2.8,1.1,4.3,3.1,4.3,1.7,0,2.7-1.4,3-3.2h1.3c-.3,2.8-2,4.4-4.6,4.4C457.8,290.6,455.8,288.2,455.8,285.1Z" fill="#cf0a2c"/><path d="M476,286.8h-3.7l-.8,2.3h1.3v1.2H469v-1.2h1.1l3.5-9.3h2l3.4,9.3h1.4v1.2h-5.2v-1.2h1.6Zm-3.3-1.1h2.9l-1.4-4.1h-.1Z" fill="#cf0a2c"/><path d="M489.2,279.9v1.2h-1.7v8.1h2c1.3,0,1.5-.3,2.3-2.9h1v4.1h-8.9v-1.2h1.6v-8.1h-1.6v-1.2Z" fill="#cf0a2c"/><path d="M497,289.1h1.6V281H497v-1.2h5.3V281h-1.6v8.1h1.6v1.2H497Z" fill="#cf0a2c"/><path d="M506.6,289.1h1.6V281h-1.6v-1.2h9.3v3.6h-1c-.6-2.1-.9-2.4-2.2-2.4h-2.5v3.6h.8c1,0,1.2-.2,1.4-1.6h1v4.3h-1c-.2-1.4-.4-1.6-1.4-1.6h-.8v3.4h1.9v1.2h-5.5v-1.2Z" fill="#cf0a2c"/><path d="M520.1,285.1a5.3,5.3,0,0,1,5.2-5.5c3,0,5.2,2.2,5.2,5.5a5.3,5.3,0,0,1-5.2,5.5A5.239,5.239,0,0,1,520.1,285.1Zm8.1,0c0-2.8-1-4.3-2.9-4.3s-2.9,1.5-2.9,4.3,1,4.3,2.9,4.3S528.2,287.9,528.2,285.1Z" fill="#cf0a2c"/><path d="M538.4,289.1H540v1.2h-5.3v-1.2h1.6V281h-1.6v-1.2h5.4c3.2,0,4.1,1.4,4.1,2.7,0,1.2-.7,2.3-2.9,2.6v.1c1.8.3,2.3,1.1,2.4,2.3l.1.9c0,.6.2.8.5.8s.4-.2.7-.8l.8.3c-.3,1-.9,1.8-2,1.8-1.3,0-2.1-.6-2.1-2.2v-1c0-1.1-.3-1.6-1.6-1.6h-1.6v3.4h-.1Zm1.6-4.5c1.5,0,2-.6,2-1.9,0-1.1-.4-1.7-1.9-1.7h-1.7v3.6Z" fill="#cf0a2c"/><path d="M552.1,282.1h0l-.1,7h1.6v1.2h-4.3v-1.2h1.5V281h-1.5v-1.2h3.9l4.9,7.5h.1V281h-1.6v-1.2h4.3V281h-1.5v9.5h-1.8Z" fill="#cf0a2c"/><path d="M565,289.1h1.6V281H565v-1.2h5.3V281h-1.6v8.1h1.6v1.2H565Z" fill="#cf0a2c"/><path d="M581.1,286.8h-3.7l-.8,2.3h1.3v1.2H574v-1.2h1.1l3.5-9.3h2l3.4,9.3h1.4v1.2h-5.2v-1.2h1.6Zm-3.3-1.1h2.9l-1.4-4.1h-.1Z" fill="#cf0a2c"/><path d="M418.8,307.6h1.1c1,2,1.7,2.7,3.3,2.7,1.2,0,1.9-.6,1.9-1.6,0-1.1-1.2-1.4-2.7-1.8-1.7-.4-3.5-1-3.5-3.2a3.3,3.3,0,0,1,3.5-3.2,3.467,3.467,0,0,1,2.6,1.1l.3-1.1h1.2v3.7h-1.1c-.8-1.9-1.7-2.6-3-2.6a1.446,1.446,0,0,0-1.6,1.5c0,1.3,1.3,1.5,2.8,1.9,1.7.4,3.4.9,3.4,3.1,0,1.9-1.5,3.3-3.7,3.3a4.133,4.133,0,0,1-3-1.2l-.4,1.1h-1.2v-3.7h.1Z" fill="#cf0a2c"/><path d="M433.3,310h1.8v-8.2h-.6c-1.3,0-1.6.4-2.3,2.9h-1v-3.9H441v3.9h-1c-.7-2.5-1-2.9-2.3-2.9h-.6V310h1.8v1.2h-5.6V310Z" fill="#cf0a2c"/><path d="M450.9,307.7h-3.7l-.8,2.3h1.3v1.2h-3.8V310H445l3.5-9.3h2l3.4,9.3h1.4v1.2h-5.2V310h1.6Zm-3.3-1.1h2.9l-1.4-4.1H449Z" fill="#cf0a2c"/><path d="M460.2,310H462v-8.2h-.6c-1.3,0-1.6.4-2.3,2.9h-1v-3.9h9.8v3.9h-1c-.7-2.5-1-2.9-2.3-2.9H464V310h1.8v1.2h-5.6V310Z" fill="#cf0a2c"/><path d="M472.1,310h1.6v-8h-1.6v-1.2h9.5v3.5h-1c-.5-1.9-.7-2.4-2-2.4h-2.9v3.4h1c1,0,1.2-.2,1.4-1.5h1V308h-1c-.2-1.4-.4-1.6-1.4-1.6h-1V310h2.8c1.5,0,1.7-.5,2.2-2.7h1v3.9H472V310Z" fill="#cf0a2c"/><path d="M493.6,307.9V302h-1.5v-1.2h5V302h-1.5v5.5c0,2,.9,2.7,2.7,2.7a2.481,2.481,0,0,0,1.8-.7,3.136,3.136,0,0,0,.7-2.4V302h-1.5v-1.2h4.3V302h-1.4v5.9c0,1.9-1.4,3.6-4.2,3.6C495,311.5,493.6,310.1,493.6,307.9Z" fill="#cf0a2c"/><path d="M510.4,303.1h-.1v7h1.6v1.2h-4.3V310h1.5v-8h-1.5v-1.2h3.9l4.9,7.5h.1V302h-1.6v-1.2h4.3V302h-1.5v9.5h-1.8Z" fill="#cf0a2c"/><path d="M523.3,310h1.6v-8h-1.6v-1.2h5.3V302H527v8.1h1.6v1.2h-5.3Z" fill="#cf0a2c"/><path d="M533.7,302h-1.4v-1.2h5.2V302H536l2.6,7.3h.1l2.7-7.3H540v-1.2h3.8V302h-1.1l-3.6,9.3h-1.9Z" fill="#cf0a2c"/><path d="M547.3,310h1.6v-8h-1.6v-1.2h9.5v3.5h-1c-.5-1.9-.7-2.4-2-2.4H551v3.4h1c1,0,1.2-.2,1.4-1.5h1V308h-1c-.2-1.4-.4-1.6-1.4-1.6h-1V310h2.8c1.5,0,1.7-.5,2.2-2.7h1v3.9h-9.7Z" fill="#cf0a2c"/><path d="M565.2,310h1.6v1.2h-5.3V310h1.6v-8h-1.6v-1.2h5.4c3.2,0,4.1,1.4,4.1,2.7,0,1.2-.7,2.3-2.9,2.6v.1c1.8.3,2.3,1.1,2.4,2.3l.1.9c0,.6.2.8.5.8s.4-.2.7-.8l.8.3c-.3,1-.9,1.8-2,1.8-1.3,0-2.1-.6-2.1-2.2v-1c0-1.1-.3-1.6-1.6-1.6h-1.6V310h-.1Zm1.5-4.5c1.5,0,2-.6,2-1.9,0-1.1-.4-1.7-1.9-1.7h-1.7v3.6Z" fill="#cf0a2c"/><path d="M576.2,307.6h1.1c1,2,1.7,2.7,3.3,2.7,1.2,0,1.9-.6,1.9-1.6,0-1.1-1.2-1.4-2.7-1.8-1.7-.4-3.5-1-3.5-3.2a3.3,3.3,0,0,1,3.5-3.2,3.467,3.467,0,0,1,2.6,1.1l.3-1.1h1.2v3.7h-1.1c-.8-1.9-1.7-2.6-3-2.6a1.446,1.446,0,0,0-1.6,1.5c0,1.3,1.3,1.5,2.8,1.9,1.7.4,3.4.9,3.4,3.1,0,1.9-1.5,3.3-3.7,3.3a4.133,4.133,0,0,1-3-1.2l-.4,1.1h-1.2v-3.7h.1Z" fill="#cf0a2c"/><path d="M588.7,310h1.6v-8h-1.6v-1.2H594V302h-1.6v8.1H594v1.2h-5.3Z" fill="#cf0a2c"/><path d="M600.5,310h1.8v-8.2h-.6c-1.3,0-1.6.4-2.3,2.9h-1v-3.9h9.8v3.9h-1c-.7-2.5-1-2.9-2.3-2.9h-.6V310h1.8v1.2h-5.6V310Z" fill="#cf0a2c"/><path d="M619.9,302h-1.3v-1.2h3.8V302h-1.2l-3,4.9v3.2h1.5v1.2h-5.1V310h1.5v-3.1l-2.9-5H612v-1.2h4.9v1.2h-1.3l2.1,3.8Z" fill="#cf0a2c"/><path d="M453.9,324h-.1v7h1.6v1.2H451V331h1.5v-8.1H451v-1.2h3.9l4.9,7.5h.1v-6.3h-1.6v-1.2h4.3v1.2h-1.5v9.5h-1.8Z" fill="#cf0a2c"/><path d="M466.8,326.9a5.3,5.3,0,0,1,5.2-5.5c3,0,5.2,2.2,5.2,5.5a5.3,5.3,0,0,1-5.2,5.5A5.181,5.181,0,0,1,466.8,326.9Zm8.2,0c0-2.8-1-4.3-2.9-4.3s-2.9,1.5-2.9,4.3,1,4.3,2.9,4.3S475,329.7,475,326.9Z" fill="#cf0a2c"/><path d="M485.2,330.9h1.6v1.2h-5.3v-1.2h1.6v-8.1h-1.6v-1.2h5.4c3.2,0,4.1,1.4,4.1,2.7,0,1.2-.7,2.3-2.9,2.6v.1c1.8.3,2.3,1.1,2.4,2.3l.1.9c0,.6.2.8.5.8s.4-.2.7-.8l.8.3c-.3,1-.9,1.8-2,1.8-1.3,0-2.1-.6-2.1-2.2v-1c0-1.1-.3-1.6-1.6-1.6h-1.6v3.4h-.1Zm1.5-4.5c1.5,0,2-.6,2-1.9,0-1.1-.4-1.7-1.9-1.7h-1.7v3.6Z" fill="#cf0a2c"/><path d="M497.8,330.9h1.8v-8.2H499c-1.3,0-1.6.4-2.3,2.9h-1v-3.9h9.8v3.9h-1c-.7-2.5-1-2.9-2.3-2.9h-.6v8.2h1.8v1.2h-5.6Z" fill="#cf0a2c"/><path d="M509.7,330.9h1.6v-8.1h-1.6v-1.2h5.1v1.2h-1.5v3.3h4.5v-3.3h-1.5v-1.2h5.1v1.2h-1.6v8.1h1.6v1.2h-5.1v-1.2h1.5v-3.7h-4.5v3.7h1.5v1.2h-5.1v-1.2Z" fill="#cf0a2c"/><path d="M529.3,330.9h1.6v1.2h-5.3v-1.2h1.6v-8.1h-1.6v-1.2H531c3.2,0,4.1,1.4,4.1,2.7,0,1.2-.7,2.3-2.9,2.6v.1c1.8.3,2.3,1.1,2.4,2.3l.1.9c0,.6.2.8.5.8s.4-.2.7-.8l.8.3c-.3,1-.9,1.8-2,1.8-1.3,0-2.1-.6-2.1-2.2v-1c0-1.1-.3-1.6-1.6-1.6h-1.6v3.4h-.1Zm1.5-4.5c1.5,0,2-.6,2-1.9,0-1.1-.4-1.7-1.9-1.7h-1.7v3.6Z" fill="#cf0a2c"/><path d="M540.2,330.9h1.6v-8.1h-1.6v-1.2h5.3v1.2h-1.6v8.1h1.6v1.2h-5.3Z" fill="#cf0a2c"/><path d="M549.7,330.9h1.6v-8.1h-1.6v-1.2h4.6c4.1,0,6.1,2.1,6.1,5.1s-1.9,5.3-5.9,5.3h-4.7l-.1-1.1Zm4.8.1c2.5,0,3.6-1.1,3.6-4.2,0-2.8-1.1-3.9-3.7-3.9h-1V331Z" fill="#cf0a2c"/><path d="M569.7,332.4c-3,0-5-2.4-5-5.5a5.333,5.333,0,0,1,5-5.5,3.487,3.487,0,0,1,2.9,1.3l.3-1.2h1.2v4.1h-1.3c-.7-1.9-1.6-3-3-3-1.6,0-2.9,1.2-2.9,4.2,0,2.7,1.1,4.3,3,4.3a1.937,1.937,0,0,0,1.8-1,3.425,3.425,0,0,0,.4-1.8V328h-1.9v-1.2h5.2V328h-1.3v4.2h-1.2l-.5-1.5A2.621,2.621,0,0,1,569.7,332.4Z" fill="#cf0a2c"/><path d="M579.4,330.9H581v-8.1h-1.6v-1.2h9.5v3.5h-1c-.5-1.9-.7-2.4-2-2.4H583v3.4h1c1,0,1.2-.2,1.4-1.5h1v4.2h-1c-.2-1.4-.4-1.6-1.4-1.6h-1v3.6h2.8c1.5,0,1.7-.5,2.2-2.7h1V332h-9.7v-1.1h.1Z" fill="#cf0a2c"/><path d="M356.4,280.1V283c7.5.9,9.2,3.7,9.2,11v23.2h-.4L336.9,280h-37v2.9c7.5.9,9.2,3.7,9.2,11v19.8c0,6-1.2,8.9-3.8,11.6a12.3,12.3,0,0,1-9.1,3.4c-8.5,0-13.7-4-13.7-13.3V286.3c0-2.6,1.4-3.2,6.9-3.4v-3H257.3c-1.6,0-5,0-6.6-.2-1.7-.3-3.6-1-5.2-1.3a33.935,33.935,0,0,0-5.5-.4c-10.2,0-17.1,7.3-17.1,17.3,0,9.8,7.9,12.9,16,15.4,9.1,3,12.6,5.1,12.6,10.6,0,4.2-2.9,8.9-9.8,8.9-6.6,0-11.5-4-15.5-13h-3.9v16.4h3.4l2.7-2.4a30.991,30.991,0,0,0,12.3,2.4c13.4,0,18.7-9,18.7-17.8,0-9.8-7.8-12.9-15.1-15.3-8.7-2.8-12.6-4.5-12.6-9.9,0-5.2,3.6-8.3,8.4-8.3,5.8,0,10.7,2,13.2,9.4h3.3v-1.4c0-3.9,2.9-7.1,7.6-7.1s7.6,3.2,7.6,7.1V316c0,11.7,8.1,17.6,21.4,17.6s20.2-7.7,20.2-17.9V290.3c0-3.9,2.9-7.1,7.5-7.1s7.5,3.2,7.5,7.1v28c0,7.5-1,10.1-8.1,11.1v2.9h20.6v-2.9c-7.6-1-8.6-3.7-8.6-11.1V291.7h.3l31.8,42h5.2V294.1c0-7.4.6-10,7.6-11v-2.9H356.4v-.1Z" fill="#cf0a2c"/><path d="M198.7,328.7c-8.4,0-17.1-7.6-17.1-23.4,0-15.4,7.2-23.3,15.4-23.3,7,0,12.2,5.8,15.4,15.5H216V278.6h-3.2l-2.3,3.4a28.957,28.957,0,0,0-13.3-3.4c-15.7,0-27.7,11.9-27.7,28.1,0,15.8,9.7,27.1,26.3,27.1,11.4,0,18.6-6.3,22.3-15l-3-1.4C211.3,324.9,206.1,328.7,198.7,328.7Z" fill="#cf0a2c"/><path d="M378.4,330.1a4,4,0,1,1,4,4A3.833,3.833,0,0,1,378.4,330.1Zm7.4,0a3.229,3.229,0,0,0-3.4-3.5,3.5,3.5,0,0,0,0,7C384.5,333.7,385.8,332.2,385.8,330.1Zm-4,1.6h.7v.4h-2v-.4h.7v-3.3h-.7V328h2.1c1.2,0,1.6.6,1.6,1.1,0,.4-.3.9-1.2,1v.1a.988.988,0,0,1,1,.9v.4c0,.2.1.3.2.3s.2-.1.3-.3l.3.1a.849.849,0,0,1-.8.7c-.5,0-.7-.2-.8-.9V331a.632.632,0,0,0-.7-.7h-.7Zm.7-1.8c.6,0,.9-.3.9-.8s-.3-.7-.8-.7h-.7v1.5Z" fill="#cf0a2c"/></g></svg>