<svg xmlns="http://www.w3.org/2000/svg" width="13.8" height="15" viewBox="0 0 13.8 15" fill='#ffffff'><g transform="translate(-21 -32)"><rect width="4.8" height="3" transform="translate(30 32)"/><rect width="4.8" height="3" transform="translate(30 38)"/><rect width="4.8" height="3" transform="translate(30 44)"/><path d="M9.2,15H0V0H9.2V15ZM2.939,7.836H4.776L6.473,11H7.58v-.064L5.743,7.616a2.355,2.355,0,0,0,1.1-.811,2.112,2.112,0,0,0,.4-1.273,2.175,2.175,0,0,0-.712-1.751,3.08,3.08,0,0,0-2.033-.6H1.9V11H2.939V7.837Zm1.584-.843H2.939V4.028H4.518a1.842,1.842,0,0,1,1.249.392A1.419,1.419,0,0,1,6.2,5.532,1.351,1.351,0,0,1,5.746,6.6,1.8,1.8,0,0,1,4.523,6.993Z" transform="translate(21 32)"/></g></svg>