<svg xmlns="http://www.w3.org/2000/svg" fill='#52B788' width="57.617" height="14.282" viewBox="0 0 57.617 14.282"><path d="M1.2,13.883,12.28,7.707a.971.971,0,0,1,.4-.146.521.521,0,0,1,.513.513q0,.305-.415.537l-9.5,5.273,9.485,5.273q.415.232.415.537a.521.521,0,0,1-.513.513.971.971,0,0,1-.4-.146Zm17.969.22v5.872h7.886V16.947a.787.787,0,0,1,.14-.525.516.516,0,0,1,.745,0,.787.787,0,0,1,.14.525V21H16.76a.764.764,0,0,1-.525-.146.478.478,0,0,1-.159-.366.473.473,0,0,1,.159-.372.787.787,0,0,1,.525-.14H18.14V7.743H16.76a.787.787,0,0,1-.525-.14.516.516,0,0,1,0-.745.787.787,0,0,1,.525-.14H27.539v3.528a.787.787,0,0,1-.14.525.516.516,0,0,1-.745,0,.787.787,0,0,1-.14-.525v-2.5H19.165v5.334h3.674v-1.16a.764.764,0,0,1,.146-.525.492.492,0,0,1,.378-.159.478.478,0,0,1,.366.159.764.764,0,0,1,.146.525v3.345a.764.764,0,0,1-.146.525.478.478,0,0,1-.366.159.492.492,0,0,1-.378-.159.764.764,0,0,1-.146-.525V14.1Zm15,.525v5.347H36.06a.81.81,0,0,1,.537.14.473.473,0,0,1,.159.372.478.478,0,0,1-.159.366A.785.785,0,0,1,36.06,21h-4.3a.764.764,0,0,1-.525-.146.478.478,0,0,1-.159-.366.473.473,0,0,1,.159-.372.787.787,0,0,1,.525-.14h1.379V7.743H31.763a.787.787,0,0,1-.525-.14.516.516,0,0,1,0-.745.787.787,0,0,1,.525-.14h6.2a4.576,4.576,0,0,1,3.229,1.215,3.66,3.66,0,0,1,1.312,2.74,3.174,3.174,0,0,1-.812,2.069,5.989,5.989,0,0,1-2.716,1.617,9.055,9.055,0,0,1,1.88,1.709,35.262,35.262,0,0,1,2.5,3.906h.781a.787.787,0,0,1,.525.14.473.473,0,0,1,.159.372.478.478,0,0,1-.159.366.764.764,0,0,1-.525.146H42.773a28.476,28.476,0,0,0-2.948-4.565,7.629,7.629,0,0,0-2.4-1.807Zm0-1.025h2.8a5.9,5.9,0,0,0,2.435-.488,3.946,3.946,0,0,0,1.587-1.147,2.221,2.221,0,0,0,.494-1.343,2.648,2.648,0,0,0-1.031-1.953,3.618,3.618,0,0,0-2.509-.928H34.167Zm24.646.281L47.729,20.06a.971.971,0,0,1-.4.146.521.521,0,0,1-.513-.513q0-.305.415-.537l9.5-5.273L47.241,8.61q-.415-.232-.415-.537a.521.521,0,0,1,.513-.513.971.971,0,0,1,.4.146Z" transform="translate(-1.196 -6.718)"/></svg>